<?xml version="1.0" encoding="utf-8"?>
<!-- Generator: Adobe Illustrator 24.1.3, SVG Export Plug-In . SVG Version: 6.00 Build 0)  -->
<svg version="1.1" id="Camada_1" xmlns="http://www.w3.org/2000/svg" xmlns:xlink="http://www.w3.org/1999/xlink" x="0px" y="0px"
	 viewBox="0 0 59 64" style="enable-background:new 0 0 59 64;" xml:space="preserve">
<style type="text/css">
	.st0{fill:url(#SVGID_1_);}
	.st1{fill:url(#SVGID_2_);}
	.st2{fill:url(#SVGID_3_);}
	.st3{fill:url(#SVGID_4_);}
	.st4{fill:url(#SVGID_5_);}
	.st5{fill:url(#SVGID_6_);}
	.st6{fill:url(#SVGID_7_);}
</style>
<g>
	<g>
		<linearGradient id="SVGID_1_" gradientUnits="userSpaceOnUse" x1="16.8099" y1="11.9027" x2="66.781" y2="11.9027">
			<stop  offset="0" style="stop-color:#B11D20"/>
			<stop  offset="1" style="stop-color:#C40347"/>
		</linearGradient>
		<path class="st0" d="M25.85,22.65c7.47,1.24,13.84-5.14,12.61-12.61c-0.75-4.52-4.39-8.16-8.91-8.89
			c-7.45-1.22-13.8,5.13-12.59,12.59C17.69,18.26,21.33,21.9,25.85,22.65z"/>
		<linearGradient id="SVGID_2_" gradientUnits="userSpaceOnUse" x1="17.5545" y1="39.2141" x2="63.3549" y2="39.2141">
			<stop  offset="0" style="stop-color:#B11D20"/>
			<stop  offset="1" style="stop-color:#C40347"/>
		</linearGradient>
		<path class="st1" d="M32.55,42.99l0.04,0c1.74-0.04,3.41-0.15,4.92-0.33l0.03-9.13c0-0.99-0.81-1.79-1.8-1.79H19.35
			c-0.99,0-1.79,0.81-1.79,1.8v9.12c1.49,0.19,3.14,0.3,4.92,0.33c2.26,0.04,4.29,1.55,5,3.7h0.06
			C28.25,44.54,30.29,43.03,32.55,42.99z M20.76,34.94h-1.79v-1.79h1.79V34.94z"/>
		<linearGradient id="SVGID_3_" gradientUnits="userSpaceOnUse" x1="52.3867" y1="57.1391" x2="61.3405" y2="57.1391">
			<stop  offset="0" style="stop-color:#B11D20"/>
			<stop  offset="1" style="stop-color:#C40347"/>
		</linearGradient>
		<path class="st2" d="M55.64,55.19H55.1h-2.06c-0.36,0-0.66,0.3-0.66,0.66v2.59c0,0.36,0.3,0.66,0.66,0.66h2.06h0.54
			c0.36,0,0.66-0.3,0.66-0.66v-2.59C56.29,55.48,56,55.19,55.64,55.19z"/>
		<linearGradient id="SVGID_4_" gradientUnits="userSpaceOnUse" x1="48.48" y1="51.3494" x2="57.4337" y2="51.3494">
			<stop  offset="0" style="stop-color:#B11D20"/>
			<stop  offset="1" style="stop-color:#C40347"/>
		</linearGradient>
		<path class="st3" d="M52.39,50.05c0-0.36-0.3-0.66-0.66-0.66h-0.54h-2.06c-0.36,0-0.66,0.3-0.66,0.66v2.59
			c0,0.36,0.3,0.66,0.66,0.66h2.06h0.54c0.36,0,0.66-0.3,0.66-0.66V50.05z"/>
		<linearGradient id="SVGID_5_" gradientUnits="userSpaceOnUse" x1="45.0537" y1="61.0458" x2="54.0075" y2="61.0458">
			<stop  offset="0" style="stop-color:#B11D20"/>
			<stop  offset="1" style="stop-color:#C40347"/>
		</linearGradient>
		<path class="st4" d="M48.3,59.09h-0.54h-2.06c-0.36,0-0.66,0.3-0.66,0.66v2.59c0,0.36,0.3,0.66,0.66,0.66h2.06h0.54
			c0.36,0,0.66-0.3,0.66-0.66v-2.59C48.96,59.39,48.66,59.09,48.3,59.09z"/>
		<linearGradient id="SVGID_6_" gradientUnits="userSpaceOnUse" x1="13.9448" y1="57.9896" x2="57.307" y2="57.9896">
			<stop  offset="0" style="stop-color:#B11D20"/>
			<stop  offset="1" style="stop-color:#C40347"/>
		</linearGradient>
		<path class="st5" d="M32.21,59.28h-0.54h-0.24h-1.81h-0.01H19.35c-1.77,0-3.21-1.44-3.21-3.21v-2.76c-0.78-0.1-1.51-0.21-2.2-0.34
			V63h17.9l0,0h0.3h0.07c0.36,0,0.66-0.28,0.66-0.63v-2.47C32.86,59.56,32.57,59.28,32.21,59.28z"/>
		<linearGradient id="SVGID_7_" gradientUnits="userSpaceOnUse" x1="2.7065" y1="42.2544" x2="116.5668" y2="42.2544">
			<stop  offset="0" style="stop-color:#B11D20"/>
			<stop  offset="1" style="stop-color:#C40347"/>
		</linearGradient>
		<path class="st6" d="M45.05,52.01v-0.07c0-0.36-0.3-0.66-0.66-0.66h-0.54h-0.87h-1.13H41.8c-0.36,0-0.66-0.3-0.66-0.66v-1.4v-1.13
			c0-0.4,0.32-0.72,0.72-0.72h1.99h0.54c0.36,0,0.66,0.3,0.66,0.66v2.25c0,0.05,0.05,0.08,0.09,0.06c0.6-0.22,1.17-0.47,1.71-0.73
			c1.76-0.89,3.12-2.03,4.06-3.39c0.94-1.35,1.48-3.07,1.47-4.73c-0.03-2.71-1.16-4.86-2-6.23c-1.46-2.33-3.51-4.53-6.1-6.56
			c-1.11-0.86-2.19-1.57-3.2-2.11c-0.58-0.31-1.09-0.54-1.6-0.72c-0.23-0.08-0.5-0.16-0.8-0.23c-0.42-0.14-0.83-0.21-1.23-0.21
			H17.65c-0.41,0-0.81,0.07-1.21,0.2c-0.51,0.12-0.91,0.27-1.32,0.43l-0.06,0.03c-1.14,0.49-2.32,1.19-3.71,2.2
			c-2.14,1.58-4.05,3.44-5.54,5.37c-1.5,2.01-3.04,4.5-3.11,7.81c-0.02,1.68,0.52,3.41,1.46,4.76c1.41,2.02,3.63,3.49,6.79,4.48
			c1.59,0.49,3.38,0.86,5.47,1.12l0.45,0.05l0.19,0.02l0.26,0.03c1.52,0.16,3.21,0.26,5.01,0.3l0.04,0c1.48,0.02,2.9-0.77,3.5-2.12
			c0.84-1.87,0.25-3.87-1.36-4.95c-0.64-0.43-1.42-0.6-2.19-0.62c-1.82-0.04-3.52-0.16-5.05-0.35c-0.15-0.02-0.31-0.04-0.45-0.06
			c-0.15-0.02-0.31-0.04-0.45-0.07c-2-0.31-3.66-0.77-4.66-1.3c-0.78-0.4-1.08-0.73-1.19-0.89l-0.04-0.06
			c-0.05-0.09-0.06-0.13-0.07-0.23l0-0.06c-0.01-0.06,0-0.14,0.02-0.25c0.03-0.2,0.18-0.93,0.83-1.94c0.51-0.84,1.3-1.8,2.27-2.77
			l0.43-0.43v0.61v5.19c0,0.03,0.02,0.05,0.05,0.06c0.61,0.17,1.3,0.33,2.07,0.46c0.04,0.01,0.08-0.02,0.08-0.06V33.6
			c0-1.81,1.46-3.27,3.27-3.27h16.33c1.77,0,3.21,1.44,3.21,3.21l-0.03,8.84c0,0.04,0.04,0.07,0.08,0.06
			c0.79-0.14,1.49-0.29,2.1-0.47c0.03-0.01,0.05-0.03,0.05-0.06v-5.2V36.1l0.43,0.43c0.56,0.55,1.05,1.11,1.47,1.64
			c0.98,1.19,1.53,2.43,1.64,3.08c0.02,0.12,0.02,0.21,0.01,0.28l0,0.03c-0.01,0.11-0.01,0.15-0.07,0.24
			c-0.18,0.32-0.95,0.99-2.79,1.56c-0.87,0.28-1.93,0.51-3.13,0.69c-0.15,0.02-0.3,0.04-0.46,0.07c-0.15,0.02-0.3,0.04-0.45,0.06
			c-1.5,0.19-3.18,0.31-5,0.35c-1.83,0.04-3.51,1.26-3.88,3.05c-0.51,2.45,1.4,4.64,3.76,4.64l0.08,0c0.2,0,0.38-0.01,0.58-0.02
			v1.53c-0.18,0.01-0.35,0.01-0.53,0.02l-0.12,0c-2.3,0-4.38-1.51-5.1-3.7h-0.06c-0.73,2.19-2.8,3.7-5.1,3.7l-0.13,0
			c-1.64-0.04-3.21-0.13-4.67-0.27c-0.04,0-0.07,0.03-0.07,0.06v2.47c0,1.03,0.83,1.86,1.86,1.86h13.84c0.04,0,0.06-0.03,0.06-0.06
			v-1.9c0-0.4,0.32-0.72,0.72-0.72h1.23h0.76h0.54c0.36,0,0.66,0.3,0.66,0.66v1.3v0.12v0.58v0.6c0,0.36,0.3,0.66,0.66,0.66h2.06
			h0.54c0.36,0,0.66-0.3,0.66-0.66v-1.82v-0.71c0-0.4,0.32-0.72,0.72-0.72h0.98h1.01h0.54c0.36,0,0.66-0.3,0.66-0.66V52.01z
			 M45.82,42.84c0-0.4,0.32-0.72,0.72-0.72h1.99h0.54c0.36,0,0.66,0.3,0.66,0.66v2.59c0,0.36-0.3,0.66-0.66,0.66h-0.54h-1.99
			c-0.4,0-0.72-0.32-0.72-0.72V42.84z M40.49,55.19h-0.54h-0.76h-0.25H38.9h-0.94c-0.4,0-0.72-0.32-0.72-0.72V53.5v-0.27v-1.23
			v-0.05v-0.03c0-0.36,0.3-0.66,0.66-0.66h1.19h0.87h0.54c0.18,0,0.34,0.07,0.45,0.19c0.12,0.12,0.2,0.29,0.2,0.47v0.07v0.71v0.28
			v1.54C41.15,54.89,40.85,55.19,40.49,55.19z"/>
	</g>
</g>
</svg>
