<svg xmlns="http://www.w3.org/2000/svg" width="500.579" height="100.958" viewBox="0 0 180.579 41.958">
  <g id="Group_2272" data-name="Group 2272" transform="translate(-91.872 -32.776)">
    <g id="Group_2270" data-name="Group 2270" transform="translate(91.872 32.776)">
      <path id="Path_205" data-name="Path 205" d="M86.729-195.213a56.337,56.337,0,0,1-13.034-1.7,27.4,27.4,0,0,1-6.349-2.366,15.825,15.825,0,0,1-8.613-12.09,21.247,21.247,0,0,1,.843-10,14.933,14.933,0,0,1,6.268-7.967,25.722,25.722,0,0,1,8.181-3.25,55.45,55.45,0,0,1,9.955-1.281,72.251,72.251,0,0,1,7.786.013,47.192,47.192,0,0,1,13.587,2.53,21.3,21.3,0,0,1,4,1.957,14.964,14.964,0,0,1,6.1,7.243,20.742,20.742,0,0,1,1.072,12.164,15.823,15.823,0,0,1-8.781,11.181,29.8,29.8,0,0,1-8.6,2.715A67.048,67.048,0,0,1,86.729-195.213Zm2.438-31.026a48.429,48.429,0,0,0-10.918.855,17.9,17.9,0,0,0-5.6,2.109,8.371,8.371,0,0,0-3.8,5.008,13.9,13.9,0,0,0-.444,4.628,9.641,9.641,0,0,0,5.938,8.829,22.184,22.184,0,0,0,6.186,1.694,48.675,48.675,0,0,0,6.844.459,44.085,44.085,0,0,0,9.152-.747,17.336,17.336,0,0,0,5.99-2.254,9.19,9.19,0,0,0,4.147-5.848,13.3,13.3,0,0,0,.2-4.712,9.49,9.49,0,0,0-5.243-7.589,17.583,17.583,0,0,0-4.529-1.576A40.812,40.812,0,0,0,89.167-226.238Z" transform="translate(10.767 233.961)" fill="#fff"/>
      <path id="Path_206" data-name="Path 206" d="M999.2-221.192c-.04,1.513-.022,2.905-.131,4.287a3.26,3.26,0,0,1-1.186,2.193,2.72,2.72,0,0,1-1.892.651c-3.021-.014-6.044,0-9.065-.006-4.32,0-8.641-.017-12.961-.008a14.291,14.291,0,0,0-6.757,1.576,11.109,11.109,0,0,0-3.709,16.518,11.417,11.417,0,0,0,7.2,4.278,17.2,17.2,0,0,0,3.162.311c6.4.028,12.8.014,19.194.013.208,0,.417-.018.675-.03v-6.086H969.86a4.607,4.607,0,0,1-.073-.538c-.006-1.015,0-2.03,0-3.046a3.975,3.975,0,0,1,.51-1.966,2.9,2.9,0,0,1,2.7-1.633c1.3.007,2.6,0,3.9,0q10.093,0,20.186,0c1.558,0,3.116.018,4.674.031.209,0,.418.022.672.036.021.215.054.4.054.578q0,8.074,0,16.148a3.953,3.953,0,0,1-.961,2.672,2.677,2.677,0,0,1-2.112.974c-8.617,0-17.234.04-25.851,0a25.2,25.2,0,0,1-11.694-2.661,18.772,18.772,0,0,1-9.023-9.331,16.793,16.793,0,0,1,6.213-20.971,23,23,0,0,1,9.03-3.52,34.225,34.225,0,0,1,5.99-.476q12.04.01,24.081,0Z" transform="translate(-818.894 222.1)" fill="#fff"/>
      <path id="Path_207" data-name="Path 207" d="M-661.77-197.481c0-1.477-.081-2.849.022-4.207a3.173,3.173,0,0,1,2.562-2.924,4.527,4.527,0,0,1,.7-.039q5.276,0,10.551,0c1.6,0,3.209.012,4.812-.039a8.71,8.71,0,0,0,3.415-.833,5.626,5.626,0,0,0,1.976-1.461,3.529,3.529,0,0,0-.075-4.828,5.772,5.772,0,0,0-2.015-1.409,10.059,10.059,0,0,0-4.065-.822q-11.153-.026-22.306-.008c-.14,0-.281.018-.521.035-.012.271-.034.541-.034.812q0,5.984,0,11.967,0,6.621,0,13.242a4.284,4.284,0,0,1-.58,2.3,2.87,2.87,0,0,1-2.625,1.5c-1.935-.016-3.871,0-5.807-.006-.207,0-.414-.023-.715-.04v-.932q0-14.552,0-29.1c0-1.534-.013-3.068-.015-4.6a4.4,4.4,0,0,1,.047-.775,1.692,1.692,0,0,1,1.755-1.513c.165-.006.331,0,.5,0h30.024a21.549,21.549,0,0,1,8.1,1.452,14.12,14.12,0,0,1,4.371,2.7,10.134,10.134,0,0,1-.262,15.6,15.833,15.833,0,0,1-7.017,3.351,24.643,24.643,0,0,1-5.408.575l-16.641.012Z" transform="translate(693.676 222.076)" fill="#fff"/>
      <path id="Path_208" data-name="Path 208" d="M-909.56-221.082c.014.284.038.536.038.788q0,16.244,0,32.489a3.906,3.906,0,0,1-.944,2.671,2.557,2.557,0,0,1-1.976.953q-3.149.013-6.3.017c-.136,0-.272-.024-.453-.041-.012-.262-.033-.492-.033-.721q0-16.209-.006-32.418a4.137,4.137,0,0,1,.943-2.817,2.512,2.512,0,0,1,1.964-.969q3.15,0,6.3,0C-909.885-221.13-909.75-221.1-909.56-221.082Z" transform="translate(919.228 222.041)" fill="#fff"/>
    </g>
<!--    <text id="Portal_do_Aluno" data-name="Portal do Aluno" transform="translate(92.034 91.734)" fill="#fff" font-size="18" font-family="Eurostile-Med, Eurostile"><tspan x="0" y="0">Portal do Aluno</tspan></text>-->
  </g>
</svg>
