<?xml version="1.0" encoding="utf-8"?>
<!-- Generator: Adobe Illustrator 24.1.3, SVG Export Plug-In . SVG Version: 6.00 Build 0)  -->
<svg version="1.1" id="Camada_1" xmlns="http://www.w3.org/2000/svg" xmlns:xlink="http://www.w3.org/1999/xlink" x="0px" y="0px"
	 viewBox="0 0 153 64" style="enable-background:new 0 0 153 64;" xml:space="preserve">
<style type="text/css">
	.st0{fill:url(#SVGID_1_);}
	.st1{fill:url(#SVGID_2_);}
	.st2{fill:url(#SVGID_3_);}
	.st3{fill:url(#SVGID_4_);}
	.st4{fill:url(#SVGID_5_);}
	.st5{fill:url(#SVGID_6_);}
	.st6{fill:url(#SVGID_7_);}
	.st7{fill:url(#SVGID_8_);}
	.st8{fill:url(#SVGID_9_);}
	.st9{fill:url(#SVGID_10_);}
	.st10{fill:url(#SVGID_11_);}
	.st11{fill:url(#SVGID_12_);}
	.st12{fill:url(#SVGID_13_);}
	.st13{fill:url(#SVGID_14_);}
	.st14{fill:url(#SVGID_15_);}
	.st15{fill:url(#SVGID_16_);}
	.st16{fill:url(#SVGID_17_);}
	.st17{fill:url(#SVGID_18_);}
	.st18{fill:url(#SVGID_19_);}
	.st19{fill:url(#SVGID_20_);}
</style>
<g>
	<g>
		<linearGradient id="SVGID_1_" gradientUnits="userSpaceOnUse" x1="15.8704" y1="11.9027" x2="65.8415" y2="11.9027">
			<stop  offset="0" style="stop-color:#fff"/>
			<stop  offset="1" style="stop-color:#fff"/>
		</linearGradient>
		<path class="st0" d="M24.91,22.65c7.47,1.24,13.84-5.14,12.61-12.61c-0.75-4.52-4.39-8.16-8.91-8.89
			c-7.45-1.22-13.8,5.13-12.59,12.59C16.76,18.26,20.39,21.9,24.91,22.65z"/>
		<linearGradient id="SVGID_2_" gradientUnits="userSpaceOnUse" x1="16.6149" y1="39.2141" x2="62.4154" y2="39.2141">
			<stop  offset="0" style="stop-color:#fff"/>
			<stop  offset="1" style="stop-color:#fff"/>
		</linearGradient>
		<path class="st1" d="M31.61,42.99l0.04,0c1.74-0.04,3.41-0.15,4.92-0.33l0.03-9.13c0-0.99-0.81-1.79-1.8-1.79H18.41
			c-0.99,0-1.79,0.81-1.79,1.8v9.12c1.49,0.19,3.14,0.3,4.92,0.33c2.26,0.04,4.29,1.55,5,3.7h0.06
			C27.31,44.54,29.35,43.03,31.61,42.99z M19.82,34.94h-1.79v-1.79h1.79V34.94z"/>
		<linearGradient id="SVGID_3_" gradientUnits="userSpaceOnUse" x1="51.4472" y1="57.1391" x2="60.4009" y2="57.1391">
			<stop  offset="0" style="stop-color:#fff"/>
			<stop  offset="1" style="stop-color:#fff"/>
		</linearGradient>
		<path class="st2" d="M54.7,55.19h-0.54H52.1c-0.36,0-0.66,0.3-0.66,0.66v2.59c0,0.36,0.3,0.66,0.66,0.66h2.06h0.54
			c0.36,0,0.66-0.3,0.66-0.66v-2.59C55.35,55.48,55.06,55.19,54.7,55.19z"/>
		<linearGradient id="SVGID_4_" gradientUnits="userSpaceOnUse" x1="47.5405" y1="51.3494" x2="56.4942" y2="51.3494">
			<stop  offset="0" style="stop-color:#fff"/>
			<stop  offset="1" style="stop-color:#fff"/>
		</linearGradient>
		<path class="st3" d="M51.45,50.05c0-0.36-0.3-0.66-0.66-0.66h-0.54H48.2c-0.36,0-0.66,0.3-0.66,0.66v2.59
			c0,0.36,0.3,0.66,0.66,0.66h2.06h0.54c0.36,0,0.66-0.3,0.66-0.66V50.05z"/>
		<linearGradient id="SVGID_5_" gradientUnits="userSpaceOnUse" x1="44.1142" y1="61.0458" x2="53.068" y2="61.0458">
			<stop  offset="0" style="stop-color:#fff"/>
			<stop  offset="1" style="stop-color:#fff"/>
		</linearGradient>
		<path class="st4" d="M47.36,59.09h-0.54h-2.06c-0.36,0-0.66,0.3-0.66,0.66v2.59c0,0.36,0.3,0.66,0.66,0.66h2.06h0.54
			c0.36,0,0.66-0.3,0.66-0.66v-2.59C48.02,59.39,47.73,59.09,47.36,59.09z"/>
		<linearGradient id="SVGID_6_" gradientUnits="userSpaceOnUse" x1="13.0053" y1="57.9896" x2="56.3674" y2="57.9896">
			<stop  offset="0" style="stop-color:#fff"/>
			<stop  offset="1" style="stop-color:#fff"/>
		</linearGradient>
		<path class="st5" d="M31.27,59.28h-0.54H30.5h-1.81h-0.01H18.41c-1.77,0-3.21-1.44-3.21-3.21v-2.76c-0.78-0.1-1.51-0.21-2.2-0.34
			V63h17.9l0,0h0.3h0.07c0.36,0,0.66-0.28,0.66-0.63v-2.47C31.93,59.56,31.63,59.28,31.27,59.28z"/>
		<linearGradient id="SVGID_7_" gradientUnits="userSpaceOnUse" x1="1.767" y1="42.2544" x2="115.6273" y2="42.2544">
			<stop  offset="0" style="stop-color:#fff"/>
			<stop  offset="1" style="stop-color:#fff"/>
		</linearGradient>
		<path class="st6" d="M44.11,52.01v-0.07c0-0.36-0.3-0.66-0.66-0.66h-0.54h-0.87h-1.13h-0.06c-0.36,0-0.66-0.3-0.66-0.66v-1.4
			v-1.13c0-0.4,0.32-0.72,0.72-0.72h1.99h0.54c0.36,0,0.66,0.3,0.66,0.66v2.25c0,0.05,0.05,0.08,0.09,0.06
			c0.6-0.22,1.17-0.47,1.71-0.73c1.76-0.89,3.12-2.03,4.06-3.39c0.94-1.35,1.48-3.07,1.47-4.73c-0.03-2.71-1.16-4.86-2-6.23
			c-1.46-2.33-3.51-4.53-6.1-6.56c-1.11-0.86-2.19-1.57-3.2-2.11c-0.58-0.31-1.09-0.54-1.6-0.72c-0.23-0.08-0.5-0.16-0.8-0.23
			c-0.42-0.14-0.83-0.21-1.23-0.21H16.71c-0.41,0-0.81,0.07-1.21,0.2c-0.51,0.12-0.91,0.27-1.32,0.43l-0.06,0.03
			c-1.14,0.49-2.32,1.19-3.71,2.2c-2.14,1.58-4.05,3.44-5.54,5.37c-1.5,2.01-3.04,4.5-3.11,7.81c-0.02,1.68,0.52,3.41,1.46,4.76
			c1.41,2.02,3.63,3.49,6.79,4.48c1.59,0.49,3.38,0.86,5.47,1.12l0.45,0.05l0.19,0.02l0.26,0.03c1.52,0.16,3.21,0.26,5.01,0.3
			l0.04,0c1.48,0.02,2.9-0.77,3.5-2.12c0.84-1.87,0.25-3.87-1.36-4.95c-0.64-0.43-1.42-0.6-2.19-0.62
			c-1.82-0.04-3.52-0.16-5.05-0.35c-0.15-0.02-0.31-0.04-0.45-0.06c-0.15-0.02-0.31-0.04-0.45-0.07c-2-0.31-3.66-0.77-4.66-1.3
			c-0.78-0.4-1.08-0.73-1.19-0.89l-0.04-0.06c-0.05-0.09-0.06-0.13-0.07-0.23l0-0.06c-0.01-0.06,0-0.14,0.02-0.25
			c0.03-0.2,0.18-0.93,0.83-1.94c0.51-0.84,1.3-1.8,2.27-2.77L13,36.11v0.61v5.19c0,0.03,0.02,0.05,0.05,0.06
			c0.61,0.17,1.3,0.33,2.07,0.46c0.04,0.01,0.08-0.02,0.08-0.06V33.6c0-1.81,1.46-3.27,3.27-3.27H34.8c1.77,0,3.21,1.44,3.21,3.21
			l-0.03,8.84c0,0.04,0.04,0.07,0.08,0.06c0.79-0.14,1.49-0.29,2.1-0.47c0.03-0.01,0.05-0.03,0.05-0.06v-5.2V36.1l0.43,0.43
			c0.56,0.55,1.05,1.11,1.47,1.64c0.98,1.19,1.53,2.43,1.64,3.08c0.02,0.12,0.02,0.21,0.01,0.28l0,0.03
			c-0.01,0.11-0.01,0.15-0.07,0.24c-0.18,0.32-0.95,0.99-2.79,1.56c-0.87,0.28-1.93,0.51-3.13,0.69c-0.15,0.02-0.3,0.04-0.46,0.07
			c-0.15,0.02-0.3,0.04-0.45,0.06c-1.5,0.19-3.18,0.31-5,0.35c-1.83,0.04-3.51,1.26-3.88,3.05c-0.51,2.45,1.4,4.64,3.76,4.64l0.08,0
			c0.2,0,0.38-0.01,0.58-0.02v1.53c-0.18,0.01-0.35,0.01-0.53,0.02l-0.12,0c-2.3,0-4.38-1.51-5.1-3.7h-0.06
			c-0.73,2.19-2.8,3.7-5.1,3.7l-0.13,0c-1.64-0.04-3.21-0.13-4.67-0.27c-0.04,0-0.07,0.03-0.07,0.06v2.47
			c0,1.03,0.83,1.86,1.86,1.86h13.84c0.04,0,0.06-0.03,0.06-0.06v-1.9c0-0.4,0.32-0.72,0.72-0.72h1.23h0.76h0.54
			c0.36,0,0.66,0.3,0.66,0.66v1.3v0.12v0.58v0.6c0,0.36,0.3,0.66,0.66,0.66h2.06h0.54c0.36,0,0.66-0.3,0.66-0.66v-1.82v-0.71
			c0-0.4,0.32-0.72,0.72-0.72h0.98h1.01h0.54c0.36,0,0.66-0.3,0.66-0.66V52.01z M44.88,42.84c0-0.4,0.32-0.72,0.72-0.72h1.99h0.54
			c0.36,0,0.66,0.3,0.66,0.66v2.59c0,0.36-0.3,0.66-0.66,0.66h-0.54H45.6c-0.4,0-0.72-0.32-0.72-0.72V42.84z M39.55,55.19h-0.54
			h-0.76h-0.25h-0.04h-0.94c-0.4,0-0.72-0.32-0.72-0.72V53.5v-0.27v-1.23v-0.05v-0.03c0-0.36,0.3-0.66,0.66-0.66h1.19h0.87h0.54
			c0.18,0,0.34,0.07,0.45,0.19c0.12,0.12,0.2,0.29,0.2,0.47v0.07v0.71v0.28v1.54C40.21,54.89,39.91,55.19,39.55,55.19z"/>
	</g>
	<g>
		<linearGradient id="SVGID_8_" gradientUnits="userSpaceOnUse" x1="50.0552" y1="23.8417" x2="130.6639" y2="5.5808">
			<stop  offset="0" style="stop-color:#fff"/>
			<stop  offset="1" style="stop-color:#fff"/>
		</linearGradient>
		<path class="st7" d="M58.28,28.32c0.02,0.68-0.12,0.82-0.8,0.8h-1.03c-0.68,0.02-0.82-0.12-0.8-0.8V16.23
			c-0.02-0.68,0.12-0.82,0.8-0.8h4.74c1.46,0,1.6,0,2.11,0.04c1.21,0.08,2.15,0.6,2.67,1.44c0.45,0.76,0.62,1.64,0.62,3.3
			c0,2.54-0.64,3.8-2.22,4.27c-0.55,0.18-0.55,0.18-3.04,0.23h-3.06V28.32z M61.24,22.45c2.32,0,2.69-0.31,2.69-2.28
			c0-1.52-0.16-2.07-0.7-2.36c-0.37-0.16-0.62-0.21-1.72-0.21h-3.22v4.84H61.24z"/>
		<linearGradient id="SVGID_9_" gradientUnits="userSpaceOnUse" x1="50.8712" y1="27.4436" x2="131.4799" y2="9.1827">
			<stop  offset="0" style="stop-color:#fff"/>
			<stop  offset="1" style="stop-color:#fff"/>
		</linearGradient>
		<path class="st8" d="M77.45,15.76c1.23,0.55,1.93,1.54,2.2,3.14c0.1,0.62,0.14,1.42,0.14,3.24c0,3.28-0.12,4.19-0.7,5.21
			c-0.49,0.86-1.4,1.46-2.63,1.7c-0.55,0.12-1.64,0.18-2.98,0.18c-2.03,0-3.06-0.16-3.9-0.62c-1.09-0.6-1.64-1.48-1.89-3
			c-0.1-0.64-0.12-1.29-0.12-3c0-3.53,0.14-4.54,0.78-5.54c0.51-0.8,1.42-1.38,2.54-1.6c0.53-0.12,1.66-0.18,2.89-0.18
			C75.75,15.31,76.65,15.43,77.45,15.76z M70.25,22.84c0,2.4,0.1,3.02,0.6,3.59c0.39,0.45,1.01,0.55,3.1,0.55
			c2.01,0,2.57-0.23,2.91-1.21c0.25-0.68,0.27-1.03,0.27-3.59c0-2.15,0-2.22-0.1-2.85c-0.12-0.8-0.45-1.31-0.96-1.54
			c-0.45-0.19-0.96-0.23-2.5-0.23c-1.66,0-2.22,0.1-2.65,0.53c-0.45,0.43-0.64,1.15-0.66,2.5V22.84z"/>
		<linearGradient id="SVGID_10_" gradientUnits="userSpaceOnUse" x1="51.5243" y1="30.3268" x2="132.133" y2="12.0659">
			<stop  offset="0" style="stop-color:#fff"/>
			<stop  offset="1" style="stop-color:#fff"/>
		</linearGradient>
		<path class="st9" d="M90.26,23.48c1.56,0.08,2.34,1.01,2.32,2.67v2.18c0.02,0.68-0.12,0.82-0.8,0.8h-1.05
			c-0.68,0.02-0.82-0.12-0.8-0.8v-1.66c0.04-1.5-0.59-2.13-2.05-2.09h-3.69v3.76c0.02,0.68-0.12,0.82-0.8,0.8h-1.03
			c-0.68,0.02-0.82-0.12-0.8-0.8V16.23c-0.02-0.68,0.12-0.82,0.8-0.8h5.93c3.3,0,4.43,1.03,4.43,4.08c0,2.73-0.47,3.47-2.46,3.86
			V23.48z M87.86,22.33c0.82,0,1.35-0.12,1.66-0.41c0.43-0.35,0.53-0.76,0.53-1.93c0-1.93-0.33-2.3-2.01-2.3h-3.86v4.64H87.86z"/>
		<linearGradient id="SVGID_11_" gradientUnits="userSpaceOnUse" x1="52.0042" y1="32.445" x2="132.6129" y2="14.1842">
			<stop  offset="0" style="stop-color:#fff"/>
			<stop  offset="1" style="stop-color:#fff"/>
		</linearGradient>
		<path class="st10" d="M100.19,28.32c0.02,0.68-0.12,0.82-0.8,0.8h-1.03c-0.68,0.02-0.82-0.12-0.8-0.8V17.73H94.4
			c-0.68,0.02-0.82-0.12-0.8-0.8v-0.7c-0.02-0.68,0.12-0.82,0.8-0.8h9.03c0.68-0.02,0.82,0.12,0.8,0.8v0.72
			c0.02,0.68-0.12,0.82-0.8,0.78h-3.24V28.32z"/>
		<linearGradient id="SVGID_12_" gradientUnits="userSpaceOnUse" x1="52.7178" y1="35.5953" x2="133.3265" y2="17.3344">
			<stop  offset="0" style="stop-color:#fff"/>
			<stop  offset="1" style="stop-color:#fff"/>
		</linearGradient>
		<path class="st11" d="M106.47,26.49l-0.66,1.99c-0.16,0.6-0.25,0.66-0.86,0.64h-1.09c-0.39,0-0.43,0-0.53-0.06
			c-0.14-0.04-0.27-0.23-0.27-0.39c0-0.12,0-0.14,0.12-0.49l4.02-12.11c0.18-0.6,0.25-0.66,0.88-0.64h2.57
			c0.62-0.02,0.68,0.04,0.86,0.64l4.1,12.11c0.1,0.33,0.12,0.39,0.12,0.49c0,0.16-0.12,0.35-0.25,0.39
			c-0.12,0.06-0.17,0.06-0.55,0.06h-1.03c-0.64,0.02-0.7-0.04-0.88-0.64l-0.68-1.99H106.47z M109.41,17.44l-2.32,7.1h4.68
			L109.41,17.44z"/>
		<linearGradient id="SVGID_13_" gradientUnits="userSpaceOnUse" x1="53.2133" y1="37.7826" x2="133.822" y2="19.5217">
			<stop  offset="0" style="stop-color:#fff"/>
			<stop  offset="1" style="stop-color:#fff"/>
		</linearGradient>
		<path class="st12" d="M125.37,26.82c0.68-0.02,0.82,0.12,0.8,0.8v0.7c0.02,0.68-0.12,0.82-0.8,0.8h-7.41
			c-0.68,0.02-0.82-0.12-0.8-0.8V16.23c-0.02-0.68,0.12-0.82,0.8-0.8h1.03c0.68-0.02,0.82,0.12,0.8,0.8v10.59H125.37z"/>
		<linearGradient id="SVGID_14_" gradientUnits="userSpaceOnUse" x1="54.3865" y1="42.9614" x2="134.9952" y2="24.7005">
			<stop  offset="0" style="stop-color:#fff"/>
			<stop  offset="1" style="stop-color:#fff"/>
		</linearGradient>
		<path class="st13" d="M55.66,35.68c-0.02-0.68,0.12-0.82,0.8-0.8h5.95c1.89,0,3.08,0.37,3.86,1.17c0.99,1.01,1.31,2.18,1.31,4.56
			c0,3.69-0.12,4.82-0.57,5.79c-0.76,1.5-2.13,2.18-4.52,2.18h-6.03c-0.68,0.02-0.82-0.12-0.8-0.8V35.68z M61.98,46.31
			c1.25,0,1.95-0.25,2.36-0.82c0.45-0.64,0.57-1.46,0.57-3.8c0-2.38-0.1-3.16-0.53-3.76c-0.39-0.55-1.03-0.78-2.24-0.78h-3.86v9.15
			H61.98z"/>
		<linearGradient id="SVGID_15_" gradientUnits="userSpaceOnUse" x1="55.1214" y1="46.2055" x2="135.7301" y2="27.9446">
			<stop  offset="0" style="stop-color:#fff"/>
			<stop  offset="1" style="stop-color:#fff"/>
		</linearGradient>
		<path class="st14" d="M78.66,35.21c1.23,0.55,1.93,1.54,2.2,3.14c0.1,0.62,0.14,1.42,0.14,3.24c0,3.28-0.12,4.19-0.7,5.21
			c-0.49,0.86-1.4,1.46-2.63,1.7c-0.55,0.12-1.64,0.18-2.98,0.18c-2.03,0-3.06-0.16-3.9-0.62c-1.09-0.6-1.64-1.48-1.89-3
			c-0.1-0.64-0.12-1.29-0.12-3c0-3.53,0.14-4.54,0.78-5.54c0.51-0.8,1.42-1.38,2.54-1.6c0.53-0.12,1.66-0.19,2.89-0.19
			C76.96,34.76,77.86,34.88,78.66,35.21z M71.46,42.29c0,2.4,0.1,3.02,0.6,3.59c0.39,0.45,1.01,0.55,3.1,0.55
			c2.01,0,2.57-0.23,2.91-1.21c0.25-0.68,0.27-1.03,0.27-3.59c0-2.16,0-2.22-0.1-2.85c-0.12-0.8-0.45-1.31-0.96-1.54
			c-0.45-0.18-0.96-0.23-2.5-0.23c-1.66,0-2.22,0.1-2.65,0.53c-0.45,0.43-0.64,1.15-0.66,2.5V42.29z"/>
		<linearGradient id="SVGID_16_" gradientUnits="userSpaceOnUse" x1="56.1166" y1="50.5983" x2="136.7253" y2="32.3374">
			<stop  offset="0" style="stop-color:#fff"/>
			<stop  offset="1" style="stop-color:#fff"/>
		</linearGradient>
		<path class="st15" d="M90.24,45.94l-0.66,1.99c-0.16,0.59-0.25,0.66-0.86,0.64h-1.09c-0.39,0-0.43,0-0.53-0.06
			c-0.14-0.04-0.27-0.23-0.27-0.39c0-0.12,0-0.14,0.12-0.49l4.02-12.11c0.18-0.59,0.25-0.66,0.88-0.64h2.57
			c0.62-0.02,0.68,0.04,0.86,0.64l4.1,12.11c0.1,0.33,0.12,0.39,0.12,0.49c0,0.16-0.12,0.35-0.25,0.39
			c-0.12,0.06-0.17,0.06-0.55,0.06h-1.03c-0.64,0.02-0.7-0.04-0.88-0.64l-0.68-1.99H90.24z M93.17,36.89l-2.32,7.1h4.68L93.17,36.89
			z"/>
		<linearGradient id="SVGID_17_" gradientUnits="userSpaceOnUse" x1="56.6121" y1="52.7858" x2="137.2208" y2="34.5249">
			<stop  offset="0" style="stop-color:#fff"/>
			<stop  offset="1" style="stop-color:#fff"/>
		</linearGradient>
		<path class="st16" d="M109.14,46.27c0.68-0.02,0.82,0.12,0.8,0.8v0.7c0.02,0.68-0.12,0.82-0.8,0.8h-7.41
			c-0.68,0.02-0.82-0.12-0.8-0.8V35.68c-0.02-0.68,0.12-0.82,0.8-0.8h1.03c0.68-0.02,0.82,0.12,0.8,0.8v10.59H109.14z"/>
		<linearGradient id="SVGID_18_" gradientUnits="userSpaceOnUse" x1="57.0996" y1="54.9378" x2="137.7083" y2="36.677">
			<stop  offset="0" style="stop-color:#fff"/>
			<stop  offset="1" style="stop-color:#fff"/>
		</linearGradient>
		<path class="st17" d="M121.58,34.88c0.68-0.02,0.82,0.12,0.8,0.8v8.31c0,1.68-0.21,2.61-0.72,3.28c-0.41,0.53-1.01,0.94-1.79,1.17
			c-0.53,0.16-1.6,0.25-3.18,0.25c-2.01,0-2.93-0.1-3.74-0.45c-1.48-0.64-1.95-1.62-1.95-4.1v-8.46c-0.02-0.68,0.12-0.82,0.8-0.8
			h1.03c0.68-0.02,0.82,0.12,0.8,0.8v8.46c0,1.99,0.41,2.3,3.08,2.3s3.04-0.29,3.04-2.4v-8.35c-0.02-0.68,0.12-0.82,0.8-0.8H121.58z
			"/>
		<linearGradient id="SVGID_19_" gradientUnits="userSpaceOnUse" x1="57.8673" y1="58.3267" x2="138.476" y2="40.0658">
			<stop  offset="0" style="stop-color:#fff"/>
			<stop  offset="1" style="stop-color:#fff"/>
		</linearGradient>
		<path class="st18" d="M127.3,37.14l0.02,0.88c0.06,1.31,0.06,1.42,0.06,2.69v7.06c0.02,0.68-0.12,0.82-0.8,0.8h-0.98
			c-0.68,0.02-0.82-0.12-0.8-0.8V35.68c-0.02-0.68,0.12-0.82,0.8-0.8h2.98c0.59-0.02,0.64,0,0.88,0.55l3.3,6.38
			c0.51,1.03,0.68,1.38,1.6,3.34l0.53,1.13h0.08l-0.02-0.88c-0.06-1.27-0.06-1.38-0.06-2.65v-7.08c-0.02-0.68,0.12-0.82,0.8-0.8
			h1.01c0.68-0.02,0.82,0.12,0.8,0.8v12.09c0.02,0.68-0.12,0.82-0.8,0.8h-3c-0.6,0.02-0.64,0-0.9-0.53l-3.63-6.98
			c-0.25-0.51-0.51-1.07-1.33-2.96l-0.45-0.96H127.3z"/>
		<linearGradient id="SVGID_20_" gradientUnits="userSpaceOnUse" x1="58.5496" y1="61.3385" x2="139.1583" y2="43.0776">
			<stop  offset="0" style="stop-color:#fff"/>
			<stop  offset="1" style="stop-color:#fff"/>
		</linearGradient>
		<path class="st19" d="M148.89,35.21c1.23,0.55,1.93,1.54,2.2,3.14c0.1,0.62,0.14,1.42,0.14,3.24c0,3.28-0.12,4.19-0.7,5.21
			c-0.49,0.86-1.4,1.46-2.63,1.7c-0.55,0.12-1.64,0.18-2.98,0.18c-2.03,0-3.06-0.16-3.9-0.62c-1.09-0.6-1.64-1.48-1.89-3
			c-0.1-0.64-0.12-1.29-0.12-3c0-3.53,0.14-4.54,0.78-5.54c0.51-0.8,1.42-1.38,2.54-1.6c0.53-0.12,1.66-0.19,2.89-0.19
			C147.19,34.76,148.09,34.88,148.89,35.21z M141.69,42.29c0,2.4,0.1,3.02,0.6,3.59c0.39,0.45,1.01,0.55,3.1,0.55
			c2.01,0,2.57-0.23,2.91-1.21c0.25-0.68,0.27-1.03,0.27-3.59c0-2.16,0-2.22-0.1-2.85c-0.12-0.8-0.45-1.31-0.96-1.54
			c-0.45-0.18-0.96-0.23-2.5-0.23c-1.66,0-2.22,0.1-2.65,0.53c-0.45,0.43-0.64,1.15-0.66,2.5V42.29z"/>
	</g>
</g>
</svg>
